<svg width="52" height="52" viewBox="0 0 52 52" fill="none" xmlns="http://www.w3.org/2000/svg">
<path opacity="0.1" d="M52 26C52 11.6406 40.3594 0 26 0C11.6406 0 0 11.6406 0 26C0 40.3594 11.6406 52 26 52C40.3594 52 52 40.3594 52 26Z" fill="#750099"/>
<path d="M30.555 37.142H20.587C18.8411 37.1386 17.1676 36.4435 15.9331 35.2089C14.6985 33.9744 14.0034 32.3009 14 30.555V20.587C14.0034 18.8411 14.6985 17.1676 15.9331 15.9331C17.1676 14.6985 18.8411 14.0034 20.587 14L30.555 14C32.3009 14.0034 33.9744 14.6985 35.2089 15.9331C36.4435 17.1676 37.1386 18.8411 37.142 20.587V30.555C37.1386 32.3009 36.4435 33.9744 35.2089 35.2089C33.9744 36.4435 32.3009 37.1386 30.555 37.142ZM20.587 15.979C19.3649 15.979 18.1928 16.4645 17.3287 17.3287C16.4645 18.1928 15.979 19.3649 15.979 20.587V30.555C15.9811 31.7743 16.4664 32.9431 17.3286 33.8054C18.1909 34.6676 19.3597 35.1529 20.579 35.155H30.55C31.7693 35.1529 32.9381 34.6676 33.8004 33.8054C34.6626 32.9431 35.1479 31.7743 35.15 30.555V20.587C35.15 19.3663 34.6656 18.1954 33.8032 17.3315C32.9407 16.4675 31.7707 15.9811 30.55 15.979H20.587Z" fill="#750099"/>
<path d="M25.571 31.497C24.3989 31.497 23.2532 31.1495 22.2787 30.4983C21.3042 29.8472 20.5446 28.9216 20.0961 27.8388C19.6476 26.756 19.5302 25.5644 19.7589 24.4149C19.9875 23.2654 20.5519 22.2095 21.3807 21.3807C22.2094 20.5519 23.2654 19.9875 24.4149 19.7589C25.5644 19.5302 26.7559 19.6476 27.8388 20.0961C28.9216 20.5446 29.8471 21.3042 30.4983 22.2787C31.1494 23.2532 31.497 24.399 31.497 25.571C31.497 27.1427 30.8726 28.65 29.7613 29.7613C28.65 30.8727 27.1427 31.497 25.571 31.497ZM25.571 21.63C24.7914 21.6304 24.0294 21.862 23.3814 22.2954C22.7334 22.7288 22.2284 23.3447 21.9304 24.0651C21.6324 24.7855 21.5546 25.5781 21.7071 26.3427C21.8595 27.1072 22.2352 27.8094 22.7866 28.3605C23.3381 28.9116 24.0406 29.2867 24.8053 29.4385C25.57 29.5904 26.3625 29.512 27.0827 29.2135C27.8029 28.9149 28.4183 28.4095 28.8513 27.7611C29.2842 27.1128 29.5152 26.3506 29.515 25.571C29.5149 25.0533 29.4127 24.5406 29.2144 24.0623C29.0162 23.584 28.7256 23.1495 28.3593 22.7835C27.9931 22.4176 27.5583 22.1273 27.0799 21.9294C26.6015 21.7315 26.0887 21.6298 25.571 21.63Z" fill="#750099"/>
<path d="M33.174 19.3069C33.1736 19.6361 33.0592 19.955 32.85 20.2092C32.6409 20.4635 32.3501 20.6374 32.0272 20.7013C31.7042 20.7652 31.3691 20.7151 31.079 20.5596C30.7888 20.4042 30.5615 20.1529 30.4358 19.8486C30.3101 19.5444 30.2938 19.206 30.3897 18.891C30.4855 18.5761 30.6876 18.3041 30.9615 18.1215C31.2353 17.9388 31.5641 17.8568 31.8916 17.8893C32.2192 17.9218 32.5254 18.0669 32.758 18.2999C32.8901 18.4322 32.9948 18.5892 33.0662 18.762C33.1376 18.9348 33.1742 19.12 33.174 19.3069Z" fill="#750099"/>
</svg>
