<svg width="52" height="52" viewBox="0 0 52 52" fill="none" xmlns="http://www.w3.org/2000/svg">
<path opacity="0.1" d="M52 26C52 11.6406 40.3594 0 26 0C11.6406 0 0 11.6406 0 26C0 40.3594 11.6406 52 26 52C40.3594 52 52 40.3594 52 26Z" fill="#750099"/>
<path d="M21.072 23H17.356V35H21.072V23Z" fill="#750099"/>
<path d="M19.197 21.426C20.4104 21.426 21.394 20.4352 21.394 19.213C21.394 17.9908 20.4104 17 19.197 17C17.9836 17 17 17.9908 17 19.213C17 20.4352 17.9836 21.426 19.197 21.426Z" fill="#750099"/>
<path d="M27.015 28.686C27.015 27.012 27.793 25.996 29.279 25.996C30.643 25.996 31.3 26.963 31.3 28.686V34.986H35V27.402C35 24.189 33.179 22.632 30.631 22.632C29.9084 22.6222 29.1955 22.7996 28.5618 23.1471C27.9281 23.4947 27.3952 24.0004 27.015 24.615V23.002H23.449V35.002H27.015V28.686Z" fill="#750099"/>
</svg>
