<svg width="88" height="99" viewBox="0 0 88 99" fill="none" xmlns="http://www.w3.org/2000/svg">
<g clip-path="url(#clip0_5294:352)">
<path d="M5.30409 87.2797C5.30409 86.2408 5.52888 85.3166 5.97844 84.5074C6.42801 83.6882 7.05241 83.0538 7.85164 82.6043C8.66086 82.1447 9.57498 81.9149 10.594 81.9149C11.8428 81.9149 12.9118 82.2446 13.8009 82.904C14.69 83.5633 15.2845 84.4625 15.5842 85.6014H12.7669C12.5571 85.1618 12.2574 84.8271 11.8678 84.5973C11.4881 84.3676 11.0536 84.2527 10.564 84.2527C9.77478 84.2527 9.1354 84.5274 8.64587 85.0769C8.15634 85.6263 7.91158 86.3606 7.91158 87.2797C7.91158 88.1989 8.15634 88.9332 8.64587 89.4826C9.1354 90.0321 9.77478 90.3068 10.564 90.3068C11.0536 90.3068 11.4881 90.1919 11.8678 89.9622C12.2574 89.7324 12.5571 89.3977 12.7669 88.9581H15.5842C15.2845 90.097 14.69 90.9962 13.8009 91.6555C12.9118 92.3049 11.8428 92.6296 10.594 92.6296C9.57498 92.6296 8.66086 92.4048 7.85164 91.9552C7.05241 91.4957 6.42801 90.8613 5.97844 90.0521C5.52888 89.2429 5.30409 88.3187 5.30409 87.2797ZM16.6439 88.3587C16.6439 87.4995 16.8038 86.7453 17.1235 86.0959C17.4532 85.4465 17.8977 84.947 18.4572 84.5973C19.0167 84.2477 19.6411 84.0728 20.3304 84.0728C20.9198 84.0728 21.4343 84.1927 21.8739 84.4325C22.3235 84.6723 22.6681 84.987 22.9079 85.3766V84.1927H25.4704V92.5547H22.9079V91.3708C22.6581 91.7604 22.3085 92.0751 21.8589 92.3149C21.4193 92.5547 20.9048 92.6745 20.3154 92.6745C19.6361 92.6745 19.0167 92.4997 18.4572 92.1501C17.8977 91.7904 17.4532 91.2859 17.1235 90.6365C16.8038 89.9771 16.6439 89.2179 16.6439 88.3587ZM22.9079 88.3737C22.9079 87.7343 22.7281 87.2298 22.3684 86.8602C22.0188 86.4905 21.5892 86.3057 21.0797 86.3057C20.5702 86.3057 20.1356 86.4905 19.7759 86.8602C19.4263 87.2198 19.2514 87.7193 19.2514 88.3587C19.2514 88.9981 19.4263 89.5076 19.7759 89.8872C20.1356 90.2569 20.5702 90.4417 21.0797 90.4417C21.5892 90.4417 22.0188 90.2569 22.3684 89.8872C22.7281 89.5176 22.9079 89.0131 22.9079 88.3737ZM37.994 84.1028C39.033 84.1028 39.8572 84.4175 40.4666 85.0469C41.0861 85.6763 41.3958 86.5505 41.3958 87.6694V92.5547H38.8482V88.014C38.8482 87.4746 38.7033 87.06 38.4136 86.7702C38.1339 86.4705 37.7443 86.3207 37.2448 86.3207C36.7452 86.3207 36.3506 86.4705 36.0609 86.7702C35.7812 87.06 35.6413 87.4746 35.6413 88.014V92.5547H33.0938V88.014C33.0938 87.4746 32.9489 87.06 32.6592 86.7702C32.3794 86.4705 31.9898 86.3207 31.4903 86.3207C30.9908 86.3207 30.5962 86.4705 30.3064 86.7702C30.0267 87.06 29.8868 87.4746 29.8868 88.014V92.5547H27.3243V84.1927H29.8868V85.2417C30.1466 84.8921 30.4863 84.6173 30.9059 84.4175C31.3255 84.2077 31.8 84.1028 32.3295 84.1028C32.9589 84.1028 33.5183 84.2377 34.0079 84.5074C34.5074 84.7772 34.897 85.1618 35.1767 85.6613C35.4665 85.2018 35.8611 84.8271 36.3606 84.5374C36.8601 84.2477 37.4046 84.1028 37.994 84.1028ZM45.7505 85.3766C45.9902 84.987 46.3349 84.6723 46.7845 84.4325C47.234 84.1927 47.7485 84.0728 48.328 84.0728C49.0173 84.0728 49.6417 84.2477 50.2012 84.5973C50.7606 84.947 51.2002 85.4465 51.5199 86.0959C51.8496 86.7453 52.0144 87.4995 52.0144 88.3587C52.0144 89.2179 51.8496 89.9771 51.5199 90.6365C51.2002 91.2859 50.7606 91.7904 50.2012 92.1501C49.6417 92.4997 49.0173 92.6745 48.328 92.6745C47.7385 92.6745 47.224 92.5597 46.7845 92.3299C46.3449 92.0901 46.0002 91.7754 45.7505 91.3858V92.5547H43.1879V81.4654H45.7505V85.3766ZM49.4069 88.3587C49.4069 87.7193 49.2271 87.2198 48.8675 86.8602C48.5178 86.4905 48.0832 86.3057 47.5637 86.3057C47.0542 86.3057 46.6196 86.4905 46.26 86.8602C45.9103 87.2298 45.7355 87.7343 45.7355 88.3737C45.7355 89.0131 45.9103 89.5176 46.26 89.8872C46.6196 90.2569 47.0542 90.4417 47.5637 90.4417C48.0732 90.4417 48.5078 90.2569 48.8675 89.8872C49.2271 89.5076 49.4069 88.9981 49.4069 88.3587ZM54.6475 83.3236C54.198 83.3236 53.8283 83.1937 53.5386 82.9339C53.2589 82.6642 53.119 82.3345 53.119 81.9449C53.119 81.5453 53.2589 81.2156 53.5386 80.9558C53.8283 80.6861 54.198 80.5512 54.6475 80.5512C55.0871 80.5512 55.4468 80.6861 55.7265 80.9558C56.0162 81.2156 56.1611 81.5453 56.1611 81.9449C56.1611 82.3345 56.0162 82.6642 55.7265 82.9339C55.4468 83.1937 55.0871 83.3236 54.6475 83.3236ZM55.9213 84.1927V92.5547H53.3588V84.1927H55.9213ZM57.2689 88.3587C57.2689 87.4995 57.4287 86.7453 57.7484 86.0959C58.0781 85.4465 58.5226 84.947 59.0821 84.5973C59.6416 84.2477 60.266 84.0728 60.9553 84.0728C61.5447 84.0728 62.0592 84.1927 62.4988 84.4325C62.9484 84.6723 63.293 84.987 63.5328 85.3766V84.1927H66.0953V92.5547H63.5328V91.3708C63.2831 91.7604 62.9334 92.0751 62.4838 92.3149C62.0442 92.5547 61.5297 92.6745 60.9403 92.6745C60.261 92.6745 59.6416 92.4997 59.0821 92.1501C58.5226 91.7904 58.0781 91.2859 57.7484 90.6365C57.4287 89.9771 57.2689 89.2179 57.2689 88.3587ZM63.5328 88.3737C63.5328 87.7343 63.353 87.2298 62.9933 86.8602C62.6437 86.4905 62.2141 86.3057 61.7046 86.3057C61.1951 86.3057 60.7605 86.4905 60.4008 86.8602C60.0512 87.2198 59.8763 87.7193 59.8763 88.3587C59.8763 88.9981 60.0512 89.5076 60.4008 89.8872C60.7605 90.2569 61.1951 90.4417 61.7046 90.4417C62.2141 90.4417 62.6437 90.2569 62.9933 89.8872C63.353 89.5176 63.5328 89.0131 63.5328 88.3737ZM70.5117 85.5864C70.8115 85.1268 71.1861 84.7672 71.6357 84.5074C72.0852 84.2377 72.5848 84.1028 73.1342 84.1028V86.8152H72.4299C71.7905 86.8152 71.311 86.9551 70.9913 87.2348C70.6716 87.5045 70.5117 87.9841 70.5117 88.6734V92.5547H67.9492V84.1927H70.5117V85.5864ZM82.2415 88.2388C82.2415 88.4786 82.2265 88.7284 82.1965 88.9881H76.3971C76.4371 89.5076 76.6019 89.9072 76.8916 90.1869C77.1913 90.4567 77.556 90.5916 77.9856 90.5916C78.6249 90.5916 79.0695 90.3218 79.3193 89.7823H82.0466C81.9068 90.3318 81.652 90.8263 81.2824 91.2659C80.9227 91.7055 80.4682 92.0502 79.9187 92.2999C79.3692 92.5497 78.7548 92.6745 78.0755 92.6745C77.2563 92.6745 76.527 92.4997 75.8876 92.1501C75.2482 91.8004 74.7487 91.3009 74.389 90.6515C74.0294 90.0021 73.8496 89.2429 73.8496 88.3737C73.8496 87.5045 74.0244 86.7453 74.374 86.0959C74.7337 85.4465 75.2332 84.947 75.8726 84.5973C76.512 84.2477 77.2463 84.0728 78.0755 84.0728C78.8847 84.0728 79.604 84.2427 80.2334 84.5823C80.8628 84.922 81.3523 85.4066 81.702 86.0359C82.0616 86.6653 82.2415 87.3996 82.2415 88.2388ZM79.619 87.5645C79.619 87.1249 79.4691 86.7752 79.1694 86.5155C78.8697 86.2557 78.4951 86.1259 78.0455 86.1259C77.6159 86.1259 77.2513 86.2507 76.9516 86.5005C76.6618 86.7503 76.482 87.1049 76.4121 87.5645H79.619Z" fill="#750099"/>
<path d="M21.6438 43.6883V33.072L44.2678 8.81781L65.1317 33.072V43.6883" stroke="#750099" stroke-width="6.01215"/>
<path d="M58.7188 39.8806L64.8311 45.0911L70.9434 39.8806" stroke="#750099" stroke-width="2.00405"/>
<path d="M27.6558 55.3118L21.5434 50.1012L15.4311 55.3118" stroke="#E65100" stroke-width="2.00405"/>
<path d="M21.8442 51.5041V68.1377H65.1317V51.5041" stroke="#E65100" stroke-width="6.01215"/>
<circle cx="65.0314" cy="48.1974" r="1.30263" fill="#E65100"/>
<circle cx="21.5436" cy="46.9949" r="1.30263" fill="#750099"/>
<rect x="55.5122" y="9.81984" width="6.81377" height="15.6316" fill="#750099"/>
</g>
<defs>
<clipPath id="clip0_5294:352">
<rect width="87.3765" height="99" fill="white"/>
</clipPath>
</defs>
</svg>
