<svg width="15" height="15" viewBox="0 0 15 15" fill="none" xmlns="http://www.w3.org/2000/svg">
<g clip-path="url(#clip0_5294:157)">
<path d="M14.6959 13.2298L11.5261 10.0593C12.2072 9.10947 12.6132 7.99019 12.6994 6.82458C12.7856 5.65896 12.5487 4.49215 12.0147 3.45243C11.4808 2.41271 10.6704 1.54035 9.67269 0.931258C8.67501 0.322168 7.52868 -6.06891e-05 6.35973 8.57355e-09C4.67294 -1.22807e-08 3.05522 0.669916 1.86239 1.8624C0.669554 3.05489 -0.000705729 4.67228 -0.000970989 6.35885C-0.00251979 7.52815 0.318776 8.67519 0.927518 9.6736C1.53626 10.672 2.40882 11.483 3.44907 12.0173C4.48932 12.5516 5.65688 12.7884 6.82311 12.7016C7.98935 12.6148 9.109 12.2079 10.0587 11.5255L13.2286 14.696C13.4248 14.8818 13.6857 14.9837 13.9559 14.98C14.2261 14.9763 14.4842 14.8674 14.6753 14.6763C14.8664 14.4853 14.9754 14.2272 14.979 13.957C14.9827 13.6869 14.8808 13.4259 14.6949 13.2298H14.6959ZM3.32892 9.38925C2.62769 8.68814 2.19131 7.76561 2.09412 6.77885C1.99693 5.79209 2.24496 4.80217 2.79593 3.97777C3.3469 3.15336 4.16673 2.54549 5.11571 2.25773C6.0647 1.96996 7.08411 2.02012 8.00025 2.39966C8.9164 2.77919 9.67257 3.46461 10.1399 4.33912C10.6073 5.21363 10.7569 6.22312 10.5633 7.19557C10.3697 8.16802 9.84481 9.04325 9.07812 9.67214C8.31144 10.301 7.35039 10.6446 6.35873 10.6444C5.79581 10.6458 5.2382 10.5356 4.71815 10.3201C4.1981 10.1047 3.72592 9.78828 3.32892 9.38925Z" fill="#750099"/>
</g>
<defs>
<clipPath id="clip0_5294:157">
<rect width="15" height="15" fill="white"/>
</clipPath>
</defs>
</svg>
