<svg width="52" height="52" viewBox="0 0 52 52" fill="none" xmlns="http://www.w3.org/2000/svg">
<path opacity="0.1" d="M52 26C52 11.6406 40.3594 0 26 0C11.6406 0 0 11.6406 0 26C0 40.3594 11.6406 52 26 52C40.3594 52 52 40.3594 52 26Z" fill="#750099"/>
<path d="M26 17.001C24.22 17.001 22.4799 17.5288 20.9999 18.5178C19.5198 19.5067 18.3663 20.9123 17.6851 22.5568C17.0039 24.2014 16.8257 26.011 17.1729 27.7568C17.5202 29.5026 18.3774 31.1063 19.636 32.3649C20.8947 33.6236 22.4984 34.4808 24.2442 34.828C25.99 35.1753 27.7996 34.9971 29.4442 34.3159C31.0887 33.6347 32.4943 32.4812 33.4832 31.0011C34.4722 29.5211 35 27.781 35 26.001C35 23.614 34.0518 21.3248 32.364 19.637C30.6761 17.9492 28.387 17.001 26 17.001ZM30.128 29.982C30.0898 30.045 30.0394 30.0998 29.9799 30.1433C29.9205 30.1868 29.853 30.2182 29.7813 30.2356C29.7097 30.2529 29.6353 30.256 29.5625 30.2446C29.4897 30.2331 29.4199 30.2075 29.357 30.169C27.244 28.877 24.583 28.586 21.451 29.301C21.3782 29.3205 21.3021 29.3252 21.2274 29.3146C21.1527 29.3041 21.0809 29.2786 21.0163 29.2397C20.9517 29.2008 20.8956 29.1493 20.8514 29.0882C20.8071 29.0271 20.7756 28.9577 20.7588 28.8842C20.742 28.8107 20.7402 28.7345 20.7535 28.6603C20.7668 28.586 20.7949 28.5152 20.8362 28.4521C20.8774 28.389 20.931 28.3348 20.9937 28.2929C21.0564 28.2509 21.1269 28.2221 21.201 28.208C24.629 27.424 27.57 27.762 29.942 29.208C30.0052 29.2464 30.0602 29.297 30.1038 29.3567C30.1474 29.4165 30.1788 29.4843 30.1961 29.5563C30.2134 29.6282 30.2162 29.7029 30.2046 29.7759C30.1929 29.849 30.1669 29.919 30.128 29.982ZM31.228 27.531C31.18 27.6097 31.1168 27.6781 31.0423 27.7323C30.9677 27.7866 30.8832 27.8255 30.7935 27.847C30.7038 27.8685 30.6108 27.872 30.5198 27.8574C30.4287 27.8428 30.3415 27.8104 30.263 27.762C27.5305 26.2386 24.3053 25.8613 21.295 26.713C21.2069 26.7397 21.1144 26.7488 21.0227 26.7398C20.9311 26.7307 20.8421 26.7038 20.7609 26.6603C20.6797 26.6169 20.6079 26.5579 20.5495 26.4868C20.491 26.4156 20.4472 26.3336 20.4205 26.2455C20.3938 26.1574 20.3847 26.0648 20.3937 25.9732C20.4027 25.8816 20.4297 25.7926 20.4731 25.7114C20.5608 25.5474 20.71 25.4249 20.888 25.371C22.5682 24.8878 24.328 24.745 26.0641 24.9511C27.8002 25.1572 29.4776 25.7079 30.998 26.571C31.1558 26.668 31.2688 26.8236 31.3121 27.0037C31.3554 27.1839 31.3255 27.3738 31.229 27.532L31.228 27.531ZM31.328 24.979C28.418 23.257 23.637 23.098 20.868 23.939C20.6561 23.9982 20.4294 23.972 20.2364 23.8662C20.0435 23.7603 19.8997 23.5831 19.8358 23.3726C19.7719 23.162 19.7929 22.9348 19.8945 22.7395C19.996 22.5443 20.1699 22.3966 20.379 22.328C23.558 21.363 28.843 21.549 32.179 23.528C32.366 23.6443 32.4999 23.8293 32.5522 24.0432C32.6044 24.2572 32.5707 24.4831 32.4583 24.6725C32.346 24.8619 32.1639 24.9997 31.9511 25.0565C31.7383 25.1132 31.5117 25.0843 31.32 24.976L31.328 24.979Z" fill="#750099"/>
</svg>
