<svg width="52" height="52" viewBox="0 0 52 52" fill="none" xmlns="http://www.w3.org/2000/svg">
<path opacity="0.1" d="M26 52C40.3594 52 52 40.3594 52 26C52 11.6406 40.3594 0 26 0C11.6406 0 0 11.6406 0 26C0 40.3594 11.6406 52 26 52Z" fill="#750099"/>
<path d="M38.2 15.3C38.1 15.3 38 15.3 37.9 15.4L13.3 24.7C12.9 24.8 12.7 25.3 12.8 25.7C12.9 25.9 13.1 26.1 13.3 26.2L19 28.1L22.4 35C22.5 35.1 22.6 35.2001 22.7 35.2001C22.8 35.2001 22.9 35.2 22.9 35.1L26.1 32.4001L22.5 29.7L22.8 33.3L20.2 27.9L34 19.7L22.6 29.7L31.5 36.5C31.8 36.7001 32.1 36.8 32.5 36.8C33.2 36.8 33.9 36.3 34.1 35.6L38.9 16.3C39 15.9 38.8 15.4 38.4 15.3C38.3 15.3 38.3 15.3 38.2 15.3Z" fill="#750099"/>
</svg>
