<svg width="52" height="52" viewBox="0 0 52 52" fill="none" xmlns="http://www.w3.org/2000/svg">
<path d="M52 26C52 11.6406 40.3594 0 26 0C11.6406 0 0 11.6406 0 26C0 40.3594 11.6406 52 26 52C40.3594 52 52 40.3594 52 26Z" fill="#750099"/>
<path d="M17 32.147C18.642 33.1992 20.5418 33.7797 22.4915 33.8248C24.4412 33.8699 26.3657 33.3779 28.0546 32.4028C29.7436 31.4276 31.1318 30.0068 32.0675 28.2957C33.0032 26.5846 33.4503 24.6492 33.36 22.701C34.0923 22.1727 34.7242 21.5177 35.226 20.767C34.5432 21.07 33.8188 21.2689 33.077 21.357C33.858 20.8896 34.4421 20.1538 34.72 19.287C33.9803 19.7249 33.1709 20.0324 32.327 20.196C31.765 19.5905 31.0184 19.188 30.2036 19.0515C29.3888 18.915 28.5517 19.0521 27.8231 19.4415C27.0944 19.8308 26.5152 20.4505 26.1758 21.2037C25.8364 21.9569 25.756 22.8013 25.947 23.605C24.4599 23.5309 23.0051 23.1446 21.6771 22.4713C20.3491 21.798 19.1777 20.8528 18.239 19.697C17.7607 20.5203 17.614 21.4948 17.8288 22.4223C18.0435 23.3499 18.6036 24.1608 19.395 24.69C18.7991 24.6726 18.2161 24.5125 17.695 24.223C17.6819 25.1025 17.9789 25.9585 18.5339 26.6409C19.0888 27.3233 19.8663 27.7886 20.73 27.955C20.1799 28.1045 19.6029 28.1264 19.043 28.019C19.2809 28.7628 19.7457 29.4135 20.3721 29.8798C20.9985 30.3461 21.7552 30.6046 22.536 30.619C20.9643 31.8423 18.9715 32.3918 16.995 32.147H17Z" fill="white"/>
</svg>
