<svg width="52" height="52" viewBox="0 0 52 52" fill="none" xmlns="http://www.w3.org/2000/svg">
<path opacity="0.1" d="M52 26C52 11.6406 40.3594 0 26 0C11.6406 0 0 11.6406 0 26C0 40.3594 11.6406 52 26 52C40.3594 52 52 40.3594 52 26Z" fill="#750099"/>
<path d="M17 32.1469C18.642 33.1991 20.5418 33.7795 22.4915 33.8246C24.4412 33.8697 26.3657 33.3778 28.0546 32.4027C29.7436 31.4275 31.1318 30.0067 32.0675 28.2956C33.0032 26.5845 33.4503 24.649 33.36 22.7009C34.0923 22.1726 34.7242 21.5176 35.226 20.7669C34.5432 21.0699 33.8188 21.2688 33.077 21.3569C33.858 20.8895 34.4421 20.1536 34.72 19.2869C33.9803 19.7248 33.1709 20.0323 32.327 20.1959C31.765 19.5904 31.0184 19.1879 30.2036 19.0514C29.3888 18.9149 28.5517 19.052 27.8231 19.4414C27.0944 19.8307 26.5152 20.4503 26.1758 21.2036C25.8364 21.9568 25.756 22.8012 25.947 23.6049C24.4599 23.5308 23.0051 23.1445 21.6771 22.4712C20.3491 21.7979 19.1777 20.8526 18.239 19.6969C17.7607 20.5201 17.614 21.4947 17.8288 22.4222C18.0435 23.3498 18.6036 24.1606 19.395 24.6899C18.7991 24.6725 18.2161 24.5124 17.695 24.2229C17.6819 25.1024 17.9789 25.9584 18.5339 26.6408C19.0888 27.3232 19.8663 27.7884 20.73 27.9549C20.1799 28.1044 19.6029 28.1263 19.043 28.0189C19.2809 28.7627 19.7457 29.4134 20.3721 29.8797C20.9985 30.346 21.7552 30.6045 22.536 30.6189C20.9643 31.8422 18.9715 32.3917 16.995 32.1469H17Z" fill="#750099"/>
</svg>
