<svg width="52" height="52" viewBox="0 0 52 52" fill="none" xmlns="http://www.w3.org/2000/svg">
<path d="M52 26C52 11.6406 40.3594 0 26 0C11.6406 0 0 11.6406 0 26C0 40.3594 11.6406 52 26 52C40.3594 52 52 40.3594 52 26Z" fill="#750099"/>
<path d="M35 25.836C34.9857 27.3662 34.5749 28.8666 33.8076 30.1907C33.0404 31.5148 31.943 32.6173 30.6225 33.3907C29.302 34.164 27.8035 34.5818 26.2734 34.6033C24.7432 34.6247 23.2336 34.2491 21.892 33.513L17 35.068L18.6 30.368C17.7661 29.0035 17.3256 27.4351 17.327 25.836C17.3146 24.6676 17.534 23.5084 17.9725 22.4254C18.411 21.3424 19.0599 20.3572 19.8816 19.5266C20.7034 18.696 21.6818 18.0367 22.76 17.5867C23.8383 17.1367 24.9951 16.905 26.1635 16.905C27.3319 16.905 28.4887 17.1367 29.567 17.5867C30.6452 18.0367 31.6236 18.696 32.4453 19.5266C33.2671 20.3572 33.916 21.3424 34.3545 22.4254C34.793 23.5084 35.0124 24.6676 35 25.836ZM26.164 18.468C24.2025 18.4624 22.3188 19.2349 20.9259 20.6161C19.5331 21.9973 18.7448 23.8745 18.734 25.836C18.7333 27.3907 19.2294 28.905 20.15 30.158L19.222 32.896L22.077 31.989C23.1939 32.7217 24.4875 33.14 25.822 33.2001C27.1564 33.2601 28.4824 32.9597 29.6606 32.3302C30.8388 31.7008 31.8257 30.7657 32.5176 29.6231C33.2096 28.4806 33.5811 27.1727 33.593 25.837C33.5824 23.8755 32.7944 21.9982 31.4018 20.6168C30.0091 19.2354 28.1255 18.4626 26.164 18.468ZM30.626 27.859C30.571 27.77 30.426 27.716 30.211 27.608C29.996 27.5 28.929 26.98 28.731 26.908C28.533 26.836 28.388 26.8 28.243 27.015C28.098 27.23 27.684 27.715 27.557 27.857C27.43 27.999 27.304 28.019 27.088 27.911C26.4499 27.6585 25.8605 27.2971 25.346 26.843C24.8746 26.409 24.4702 25.9076 24.146 25.355C24.02 25.14 24.133 25.024 24.246 24.917C24.359 24.81 24.463 24.666 24.571 24.541C24.6601 24.4325 24.7329 24.3115 24.787 24.182C24.816 24.1227 24.8295 24.0571 24.8264 23.9912C24.8232 23.9253 24.8035 23.8612 24.769 23.805C24.715 23.698 24.281 22.64 24.101 22.205C23.921 21.77 23.74 21.847 23.614 21.847C23.488 21.847 23.343 21.829 23.199 21.829C23.0894 21.8318 22.9815 21.8571 22.882 21.9034C22.7826 21.9497 22.6938 22.0159 22.621 22.098C22.3764 22.3273 22.1826 22.6053 22.0521 22.9142C21.9215 23.223 21.8571 23.5557 21.863 23.891C21.9336 24.7026 22.241 25.4755 22.747 26.114C23.6489 27.5236 24.9318 28.6487 26.447 29.359C28.647 30.219 28.647 29.932 29.047 29.896C29.3468 29.837 29.6309 29.7159 29.8811 29.5406C30.1314 29.3653 30.3422 29.1396 30.5 28.878C30.6411 28.557 30.6849 28.2016 30.626 27.856V27.859Z" fill="white"/>
</svg>
