<svg width="52" height="52" viewBox="0 0 52 52" fill="none" xmlns="http://www.w3.org/2000/svg">
<path opacity="0.1" d="M52 26C52 11.6406 40.3594 0 26 0C11.6406 0 0 11.6406 0 26C0 40.3594 11.6406 52 26 52C40.3594 52 52 40.3594 52 26Z" fill="#750099"/>
<path d="M35.74 21.252C35.627 20.7385 35.3573 20.2728 34.9682 19.9192C34.5792 19.5656 34.0899 19.3416 33.568 19.278C31.0678 19.0455 28.5565 18.9527 26.046 19C23.5354 18.9527 21.0242 19.0455 18.524 19.278C18.0024 19.3418 17.5134 19.566 17.1247 19.9196C16.736 20.2732 16.4667 20.7388 16.354 21.252C16.0606 22.817 15.9418 24.4098 16 26.001C15.9406 27.5918 16.0579 29.1842 16.35 30.749C16.4626 31.2626 16.732 31.7285 17.1209 32.0823C17.5098 32.4361 17.9991 32.6604 18.521 32.724C21.0212 32.9566 23.5324 33.0495 26.043 33.002C28.5535 33.0495 31.0648 32.9567 33.565 32.724C34.0867 32.6603 34.5758 32.4362 34.9647 32.0826C35.3535 31.729 35.623 31.2634 35.736 30.75C36.0284 29.1852 36.1461 27.5928 36.087 26.002C36.1475 24.4107 36.0311 22.8176 35.74 21.252ZM23.451 29.118V22.476L29.837 25.808L23.451 29.118Z" fill="#750099"/>
</svg>
